<svg xmlns="http://www.w3.org/2000/svg" viewBox="0 0 836.9 216.75"><title>isletopia_text_logo_1</title><g id="图层_2" data-name="图层 2"><g id="图层_1-2" data-name="图层 1"><path d="M249.67,86.72C264.11,68.2,279.13,50.2,291.9,30.11L259.74,9.4c-.37.81-.64,1.35-.88,1.91-11.72,27.16-43.22,79.74-43.22,79.74h0s4.71,13.39,6.85,19.31c.9,2.48,2.06,3.32,4.71,2.94,4.86-.71,27.41-2.59,34.72-3.18-1.47,2.47-29.82,42.19-45.22,58.82-1.78,1.93-2.42,3.4-1,5.95,4.8,8.59,9.46,17.27,13.89,26.05,1.34,2.67,3,3.13,5.51,2.46,7.58-2,71.06-15.68,71.06-15.68a85,85,0,0,1,6.57,16L330.15,195s2,14.79,2.94,21.78h0l11.86-.89s19.83-2.59,29.57-4.68c18.61-4,33.5-22.73,34-41.63,1.23-42.76,3.87-140.45,3.87-146.6l-98.38,3.51V57.59l68.52-7.83c0,1.71-4.14,66.44-6.25,97.91-.4,6-.59,12-1.62,17.9-1.51,8.69-7.25,13.64-15.8,14.18-6.75.43-23.77.74-23.77.74a310.41,310.41,0,0,1-23.72-57.84L281.2,136.19c4.77,9.09,9.54,18.17,14.73,28.08l-43,4.89c24.61-32.74,46.74-66.41,67.87-100.62l-29.3-12c-5.54,12.88-15,26.39-15,26.39Z"/><path d="M436.47,80.33l-7.68-36,84.39-1.43c-4.44-10-11-17.77-18-24.82L525.77,0l18.74,39.26L535.13,42l.06.87h75.95c0,9.05.17,17.48-.14,25.9-.06,1.65-1.77,3.43-3.07,4.81-24.73,26.22-52.59,48.7-82.4,68.84-9.4,6.36-19,12.49-29.7,19.55l126.31,13.36c-3.44,11.09-6.87,22.14-10.49,33.84-7.4-1.26-15.52-2.61-23.63-4q-65.88-11.43-131.78-22.79a8.62,8.62,0,0,0-5.74,1.42c-4.91,3.36-9.53,7.11-14.09,10.58l-13.72-38.26c13-5.87,26.5-11.19,39.27-17.86C487.84,124.76,525.83,106,567.88,71Z"/><path d="M35.06,163.44c-2.17,1.75-3.53,1.66-5.76-.41-6.85-6.38-14.11-12.33-21.51-18.71,9.49-5.55,18.79-10.79,27.9-16.35a99,99,0,0,0,25.14-21.44l-18.72,3.31V76L16.2,105.23,0,84.14,34.09,54.75l-1-1.69-29.5,8V32.72L42.2,30.89c-1.31-7.69-2.55-15-3.84-22.6L67,4.11V28.56l28.89-4.92V50.3L67.58,52.55l-.46,1.53L94.62,68C90.15,74.38,85.9,80.5,81.47,86.88l-14-10.37V96.2l27.11,7.7-6.69,10L177.78,110c.59,5.18,1.17,10.3,1.73,15.43a17,17,0,0,0,.21,3.22c.25,8.7-1.07,13.07-5.89,18.56-13.55,15.45-30.62,26-48.18,36C98,199.1,67.91,207.39,36.86,212.91c-5,.89-10,1.44-15,2.46-2.45.5-3.64-.12-4.49-2.43-3.57-9.63-7.27-19.2-11.09-29.24,22-.16,44-.24,66.38-7.36l-17.31-17.8L72.81,142.8c8.82,7.34,26.56,22.28,26.56,22.28s26.46-9.34,43-29c-13.67,0-26.87-.11-40.06,0q-15.93.18-31.84.94"/><path d="M693.49,6.62c-1.33,52.41-2.6,102.67-3.9,154,.83.15,11.39-3.07,11.39-3.07l.81-111.74s16.89-3.82,24-5.27c-.56,52.37-1.12,104.19-1.68,156.64l-23.47,4.18V184.05l-62.92,9.88c-3-50.15-5.88-99.68-8.83-149.55l28.94-4.25V167c2.56-.7,11.49-2.79,11.49-2.79S667.59,114.32,667,91.4q-.72-29.08-1.41-58.16c-.12-4.77-.21-17.44-.21-17.44S684.2,9.7,693.49,6.62Z"/><path d="M758,93.64l76.62-2.3c0,2.48.11,4.87,0,7.25,0,50-6,89-7.76,94-4.81,14-14.85,21.75-29.68,22.18-15,.43-30.12.09-45.28.09-1.53-9.89-3.16-20.4-4.85-31.23,9.43,1.31,31,4.34,32.05,4.42,16.43,1.23,23.12-4.79,24.61-21.19,1.37-15,3.36-29.95,5-44.93.32-2.87.36-5.78.57-9.34l-76.92,5.94c1.59-35.29,3.18-70.4,4.8-106.25l30.58-2.83c-1,10.57-1.94,20.57-3,31.42l72.12-8.06c-1.11,9.94-2.16,19.33-3.27,29.22-10.36.42-20.61.81-30.84,1.24-12.3.51-24.59,1-36.88,1.65-1.28.06-3.46,1-3.61,1.81C760.71,75.47,759.45,84.25,758,93.64Z"/><path d="M135.17,106.26V72.85l-29.94,32.38-16.9-19c14.1-8.7,26.83-19.28,36.78-33.27l-18.92,5c-.64-8.14-1.25-15.74-1.9-23.93l30.84-2c-1.07-8-2.1-15.68-3.18-23.71l27.79-6.39V30l38-5.11V51l-28.18,1.53c10.56,13.18,23.12,22.21,37.05,29.92-5.29,8-10.35,15.63-15.57,23.52-12.75-8.16-21.81-19.68-31.09-31.83v28.21L149.25,104C144.86,104.72,140.47,105.43,135.17,106.26Z"/><path d="M730.93,140l67.6-3.11v24.33l-67.6,5.24Z"/></g></g></svg>